<?xml version="1.0" encoding="UTF-8"?>
<!DOCTYPE svg PUBLIC "-//W3C//DTD SVG 1.1//EN" "http://www.w3.org/Graphics/SVG/1.1/DTD/svg11.dtd">
<!-- Creator: CorelDRAW X7 -->
<svg xmlns="http://www.w3.org/2000/svg" xml:space="preserve" width="1456px" height="789px" version="1.1" style="shape-rendering:geometricPrecision; text-rendering:geometricPrecision; image-rendering:optimizeQuality; fill-rule:evenodd; clip-rule:evenodd"
viewBox="0 0 1996 1082"
 xmlns:xlink="http://www.w3.org/1999/xlink">
 <defs>
  <style type="text/css">
   <![CDATA[
    .fil0 {fill:black;fill-rule:nonzero}
    .fil1 {fill:#E31E24;fill-rule:nonzero}
   ]]>
  </style>
 </defs>
 <g id="Слой_x0020_1">
  <metadata id="CorelCorpID_0Corel-Layer"/>
  <g id="_1266061536">
   <polygon class="fil0" points="693,0 855,0 855,162 693,162 "/>
   <polygon class="fil0" points="855,162 1017,162 1016,324 855,324 "/>
   <polygon class="fil1" points="1178,162 1340,163 1340,324 1178,324 "/>
   <polygon class="fil0" points="1017,0 1179,1 1178,162 1017,162 "/>
   <polygon class="fil0" points="1340,1 1502,1 1502,163 1340,163 "/>
  </g>
  <g id="_1266076768">
   <path class="fil0" d="M1374 842l0 0 1 -453 84 0 0 46c24,-34 56,-51 98,-51 40,0 71,18 95,55 30,-36 65,-54 105,-54 68,0 103,37 103,111l-1 346 -86 0 0 -304c0,-53 -18,-79 -55,-79 -20,0 -36,6 -45,19 -10,12 -15,29 -15,48l0 316 -87 0 0 -304c1,-53 -17,-79 -51,-79 -20,0 -35,6 -45,19 -10,13 -15,29 -15,48l0 316 -86 0z"/>
   <polygon class="fil0" points="6,840 66,165 152,165 248,633 346,166 428,166 490,841 401,841 373,367 279,840 214,840 121,367 92,840 "/>
   <polygon class="fil0" points="1302,842 1302,842 1215,841 1215,388 1303,388 "/>
   <polygon class="fil0" points="966,601 966,601 875,388 966,388 1013,519 1061,388 1151,388 1060,601 1167,841 1075,841 1012,684 950,841 858,841 "/>
   <path class="fil0" d="M747 841l0 -44c-14,19 -27,32 -39,40 -12,7 -30,11 -52,11 -30,0 -54,-9 -73,-26 -18,-18 -31,-45 -40,-81 -8,-36 -12,-81 -12,-133 0,-153 41,-229 123,-228 39,0 70,17 93,51l0 -43 87 0 -1 453 -86 0zm-129 -232l0 0c0,56 5,97 16,124 10,26 26,39 46,39 25,0 43,-9 53,-29 11,-19 16,-51 16,-97l0 -71c0,-40 -5,-70 -15,-89 -10,-20 -27,-29 -52,-29 -25,0 -41,12 -50,36 -9,24 -14,62 -14,116z"/>
   <path class="fil0" d="M1940 297c9,0 19,3 28,8 9,4 16,11 21,20 5,10 7,19 7,29 0,10 -2,19 -7,28 -5,9 -12,16 -21,21 -9,5 -18,8 -28,8 -10,0 -19,-3 -28,-8 -9,-5 -16,-12 -21,-21 -5,-9 -8,-18 -8,-28 0,-10 3,-19 8,-29 5,-9 12,-16 21,-20 9,-5 18,-8 28,-8zm0 10c-8,0 -16,2 -24,6 -7,4 -13,10 -17,17 -4,8 -7,16 -7,24 0,8 3,16 7,23 4,8 10,14 17,18 8,4 16,6 24,6 8,0 16,-2 23,-6 8,-4 14,-10 18,-18 4,-7 6,-15 6,-23 0,-8 -2,-16 -6,-24 -5,-7 -10,-13 -18,-17 -8,-4 -15,-6 -23,-6zm-25 78l0 -61 21 0c7,0 12,1 15,2 4,1 6,3 8,6 2,3 3,6 3,9 0,4 -2,8 -5,11 -3,4 -7,6 -13,6 3,1 4,2 6,3 2,3 5,7 9,12l7 12 -12 0 -5 -9c-5,-8 -8,-13 -11,-15 -1,-1 -4,-2 -7,-2l-6 0 0 26 -10 0zm10 -34l12 0c5,0 9,-1 11,-3 2,-1 3,-4 3,-6 0,-2 0,-4 -1,-5 -1,-2 -2,-3 -4,-3 -2,-1 -5,-1 -10,-1l-11 0 0 18z"/>
  </g>
  <path class="fil0" d="M85 1057c1,0 2,0 3,1l6 7c-4,5 -10,9 -17,12 -6,3 -14,5 -23,5 -9,0 -16,-2 -22,-4 -7,-3 -13,-7 -17,-12 -5,-5 -9,-11 -11,-18 -3,-7 -4,-15 -4,-24 0,-8 1,-16 4,-23 3,-7 6,-13 11,-18 5,-5 11,-9 18,-12 6,-3 14,-4 22,-4 8,0 15,1 21,4 6,3 12,6 16,10l-5 8c0,0 -1,1 -1,1 -1,0 -1,1 -2,1 -1,0 -2,-1 -4,-2 -1,-1 -3,-2 -5,-3 -2,-1 -5,-3 -8,-4 -3,-1 -7,-1 -12,-1 -6,0 -11,1 -16,3 -4,2 -8,5 -12,9 -3,3 -6,8 -8,13 -2,5 -2,12 -2,18 0,7 0,13 2,19 2,5 5,10 9,13 3,4 7,7 12,9 4,2 9,3 15,3 3,0 6,0 8,-1 3,0 5,-1 8,-1 2,-1 4,-2 6,-4 2,-1 4,-2 6,-4 0,0 0,-1 1,-1 0,0 1,0 1,0zm112 -89l0 113 -16 0 0 -100 -36 0c-1,14 -2,27 -3,37 -1,11 -3,20 -5,27 -1,8 -3,14 -6,19 -2,4 -4,8 -7,11 -3,2 -5,4 -9,5 -3,1 -6,2 -9,2 -3,0 -5,-1 -7,-1 -2,-1 -2,-2 -2,-3l0 -10 5 0c2,0 4,0 6,-1 2,-1 4,-2 6,-5 2,-2 4,-6 5,-10 2,-5 4,-11 5,-18 1,-7 3,-16 4,-27 0,-11 1,-24 2,-39l67 0zm40 100c2,0 3,0 4,0 1,0 3,-1 4,-2 1,0 2,-1 3,-3 1,-1 2,-2 3,-4l6 -11 -45 -80 15 0c1,0 2,1 3,1 1,1 2,2 2,3l27 49c2,4 4,8 5,12 0,-2 1,-4 2,-6 0,-2 1,-4 2,-6l23 -49c0,-1 1,-2 2,-3 1,0 2,-1 3,-1l14 0 -46 98c-1,3 -3,5 -4,7 -2,3 -4,4 -6,5 -2,2 -4,2 -6,3 -2,0 -5,1 -7,1 -3,0 -5,-1 -7,-1 -2,-1 -2,-2 -2,-3l0 -10 5 0zm89 -100c2,0 3,1 5,2 1,0 2,2 3,3l27 38c2,3 4,4 6,5 1,1 3,1 6,1l11 0 0 -49 15 0 0 49 11 0c2,0 4,0 6,-1 2,-1 3,-2 5,-5l27 -38c1,-1 2,-3 4,-3 1,-1 3,-2 4,-2l13 0 -32 45c-2,2 -3,4 -5,5 -1,2 -3,3 -5,4 2,1 4,2 6,3 2,2 4,4 6,7l33 49 -11 0c-2,0 -4,-1 -6,-2 -2,-1 -3,-2 -4,-4l-28 -39c-1,-3 -3,-4 -5,-5 -1,-1 -4,-2 -6,-2l-13 0 0 52 -15 0 0 -52 -13 0c-3,0 -5,1 -7,2 -2,1 -3,2 -5,5l-27 39c-1,2 -3,3 -4,4 -2,1 -4,2 -6,2l-11 0 32 -49c2,-3 4,-5 6,-7 2,-1 4,-2 7,-3 -3,-1 -4,-2 -6,-4 -1,-1 -3,-3 -5,-5l-32 -45 13 0zm234 13l-57 0 0 35 21 0c7,0 13,1 18,2 5,2 9,4 12,7 4,3 6,6 8,9 1,4 2,8 2,13 0,5 -1,9 -3,14 -1,4 -4,7 -7,10 -4,3 -8,6 -13,7 -5,2 -11,3 -17,3l-37 0 0 -113 73 0 0 13zm-57 48l0 39 21 0c4,0 8,-1 11,-2 3,-1 6,-2 7,-4 2,-1 4,-4 5,-6 1,-2 1,-5 1,-8 0,-3 0,-6 -1,-8 -1,-2 -3,-4 -4,-6 -2,-2 -5,-3 -8,-4 -3,-1 -6,-1 -11,-1l-21 0zm172 52l-13 0c-1,0 -2,-1 -3,-2 -1,0 -2,-1 -2,-2l-11 -27 -49 0 -10 27c-1,1 -1,2 -2,2 -1,1 -3,2 -4,2l-12 0 44 -113 17 0 45 113zm-74 -42l41 0 -17 -44c-1,-2 -1,-4 -2,-5 0,-2 -1,-4 -1,-6 -1,2 -2,4 -2,6 -1,2 -1,3 -2,5l-17 44zm193 -43c0,6 -2,10 -4,15 -3,4 -7,7 -12,10 3,1 5,2 8,4 2,2 4,4 6,6 1,2 3,5 4,7 0,3 1,5 1,8 0,5 -1,10 -3,14 -2,4 -4,8 -8,11 -3,4 -8,6 -13,8 -5,2 -11,3 -17,3 -8,0 -16,-2 -22,-4 -7,-3 -12,-7 -17,-11l5 -8c0,0 1,-1 2,-1 0,-1 1,-1 2,-1 0,0 1,0 2,1 1,0 2,1 3,2 2,1 3,2 5,3 1,1 3,1 5,2 2,1 4,2 7,2 2,1 5,1 8,1 8,0 15,-2 19,-5 4,-4 7,-9 7,-16 0,-3 -1,-6 -2,-8 -1,-2 -3,-4 -5,-6 -2,-2 -4,-3 -7,-4 -3,-1 -7,-1 -11,-1l-15 0 0 -14 15 0c3,0 6,0 8,-1 3,0 5,-2 7,-3 2,-2 4,-3 5,-5 1,-3 2,-5 2,-8 0,-2 -1,-5 -2,-7 -1,-2 -2,-3 -4,-5 -2,-1 -5,-3 -7,-3 -3,-1 -7,-2 -10,-2 -4,0 -8,1 -11,2 -3,1 -5,2 -7,3 -2,1 -4,2 -5,3 -1,0 -3,1 -4,1 0,0 -1,0 -2,-1 0,0 -1,-1 -1,-2l-4 -7c4,-4 9,-7 15,-9 5,-2 12,-3 19,-3 6,0 11,1 16,2 4,2 8,4 12,6 3,3 5,6 7,9 2,4 3,8 3,12zm115 85l-12 0c-1,0 -3,-1 -4,-2 0,0 -1,-1 -2,-2l-10 -27 -49 0 -11 27c0,1 -1,2 -2,2 0,1 -2,2 -3,2l-12 0 44 -113 17 0 44 113zm-73 -42l41 0 -17 -44c-1,-2 -1,-4 -2,-5 0,-2 -1,-4 -2,-6 0,2 -1,4 -1,6 -1,2 -1,3 -2,5l-17 44zm104 -22l11 0c1,0 2,0 3,0 1,0 2,-1 3,-1 1,0 2,-1 2,-2 1,0 2,-1 3,-2l28 -39c1,-2 2,-3 3,-3 2,-1 3,-2 5,-2l13 0 -33 46c-3,4 -6,6 -10,8 3,0 5,2 7,3 2,2 4,4 6,7l33 49 -14 0c-2,0 -3,-1 -5,-2 -1,-1 -2,-2 -3,-3l-28 -41c-2,-2 -3,-4 -5,-4 -1,-1 -3,-2 -6,-2l-13 0 0 52 -17 0 0 -113 17 0 0 49zm181 64l-12 0c-2,0 -3,-1 -4,-2 -1,0 -2,-1 -2,-2l-10 -27 -50 0 -10 27c0,1 -1,2 -2,2 -1,1 -2,2 -3,2l-13 0 45 -113 16 0 45 113zm-73 -42l41 0 -17 -44c-1,-2 -2,-4 -2,-5 -1,-2 -1,-4 -2,-6 -1,2 -1,4 -2,6 0,2 -1,3 -1,5l-17 44zm153 -43c0,6 -2,10 -5,15 -2,4 -6,7 -11,10 3,1 5,2 8,4 2,2 4,4 6,6 1,2 2,5 3,7 1,3 2,5 2,8 0,5 -1,10 -3,14 -2,4 -5,8 -8,11 -4,4 -8,6 -13,8 -5,2 -11,3 -17,3 -8,0 -16,-2 -22,-4 -7,-3 -12,-7 -17,-11l5 -8c0,0 1,-1 1,-1 1,-1 2,-1 3,-1 0,0 1,0 2,1 1,0 2,1 3,2 1,1 3,2 4,3 2,1 4,1 6,2 2,1 4,2 7,2 2,1 5,1 8,1 8,0 14,-2 19,-5 4,-4 7,-9 7,-16 0,-3 -1,-6 -2,-8 -1,-2 -3,-4 -5,-6 -2,-2 -5,-3 -8,-4 -3,-1 -6,-1 -10,-1l-15 0 0 -14 14 0c4,0 7,0 9,-1 3,0 5,-2 7,-3 2,-2 4,-3 5,-5 1,-3 1,-5 1,-8 0,-2 0,-5 -1,-7 -1,-2 -3,-3 -5,-5 -1,-1 -4,-3 -7,-3 -2,-1 -6,-2 -9,-2 -4,0 -8,1 -11,2 -3,1 -5,2 -7,3 -2,1 -4,2 -5,3 -2,0 -3,1 -4,1 -1,0 -1,0 -2,-1 0,0 -1,-1 -1,-2l-4 -7c4,-4 9,-7 14,-9 6,-2 13,-3 20,-3 5,0 11,1 15,2 5,2 9,4 12,6 4,3 6,6 8,9 2,4 3,8 3,12zm115 85l-12 0c-2,0 -3,-1 -4,-2 -1,0 -1,-1 -2,-2l-10 -27 -50 0 -10 27c0,1 -1,2 -2,2 -1,1 -2,2 -3,2l-13 0 45 -113 16 0 45 113zm-73 -42l41 0 -17 -44c-1,-2 -1,-4 -2,-5 -1,-2 -1,-4 -2,-6 0,2 -1,4 -1,6 -1,2 -2,3 -2,5l-17 44zm203 -71l0 14 -36 0 0 99 -16 0 0 -99 -36 0 0 -14 88 0zm98 113l-13 0c-1,0 -2,-1 -3,-2 -1,0 -2,-1 -2,-2l-10 -27 -50 0 -10 27c-1,1 -1,2 -2,2 -1,1 -2,2 -4,2l-12 0 45 -113 16 0 45 113zm-74 -42l41 0 -17 -44c0,-2 -1,-4 -1,-5 -1,-2 -2,-4 -2,-6 -1,2 -1,4 -2,6 -1,2 -1,3 -2,5l-17 44zm104 -22l11 0c2,0 3,0 4,0 1,0 2,-1 2,-1 1,0 2,-1 3,-2 1,0 1,-1 2,-2l29 -39c1,-2 2,-3 3,-3 1,-1 2,-2 4,-2l13 0 -33 46c-2,4 -6,6 -10,8 3,0 5,2 7,3 2,2 4,4 6,7l33 49 -14 0c-2,0 -3,-1 -4,-2 -1,-1 -2,-2 -3,-3l-29 -41c-1,-2 -3,-4 -4,-4 -2,-1 -4,-2 -7,-2l-13 0 0 52 -16 0 0 -113 16 0 0 49zm163 40c1,0 1,0 2,1l6 7c-4,5 -10,9 -16,12 -7,3 -15,5 -24,5 -8,0 -16,-2 -22,-4 -7,-3 -12,-7 -17,-12 -5,-5 -8,-11 -11,-18 -2,-7 -4,-15 -4,-24 0,-8 2,-16 4,-23 3,-7 7,-13 12,-18 4,-5 10,-9 17,-12 7,-3 14,-4 22,-4 8,0 15,1 22,4 6,3 11,6 16,10l-6 8c0,0 0,1 -1,1 0,0 -1,1 -2,1 -1,0 -2,-1 -3,-2 -2,-1 -3,-2 -6,-3 -2,-1 -5,-3 -8,-4 -3,-1 -7,-1 -12,-1 -5,0 -11,1 -15,3 -5,2 -9,5 -12,9 -4,3 -6,8 -8,13 -2,5 -3,12 -3,18 0,7 1,13 3,19 2,5 4,10 8,13 3,4 7,7 12,9 5,2 10,3 15,3 3,0 6,0 9,-1 2,0 5,-1 7,-1 2,-1 4,-2 6,-4 2,-1 4,-2 6,-4 0,0 1,-1 1,-1 1,0 1,0 2,0zm98 -84c1,-1 2,-2 3,-3 1,-1 3,-2 4,-2l12 0 0 113 -16 0 0 -79c0,-2 0,-4 0,-7 0,-2 1,-5 1,-8 -1,3 -2,5 -3,7 -1,2 -2,4 -3,6l-51 75c-1,2 -2,3 -3,4 -1,1 -3,2 -4,2l-12 0 0 -113 16 0 0 78c0,3 0,5 0,7 -1,3 -1,6 -1,8 1,-2 2,-4 3,-6 1,-2 2,-4 3,-6l51 -76z"/>
 </g>
</svg>
